<svg xmlns="http://www.w3.org/2000/svg" width="940" height="576" viewBox="0 0 940 576" role="img" aria-labelledby="title description">
<title id="title">Will Waymo launch public driverless rides in Boston before 2029?</title>
<desc id="description">Dependency diagram. Arrows run from prerequisites to dependent steps. The green box satisfies the forecasting question.</desc>
<defs><marker id="arrow" viewBox="0 0 10 10" refX="9" refY="5" markerWidth="7" markerHeight="7" orient="auto-start-reverse"><path d="M 0 0 L 10 5 L 0 10 z" fill="#61766d"/></marker></defs>
<rect width="100%" height="100%" fill="#f6f9f6"/>
<g font-family="system-ui, sans-serif" fill="#193d2d">
<text x="30" y="36" font-size="21" font-weight="600">Will Waymo launch public driverless rides in Boston before 2029?</text>
<text x="30" y="86" font-size="14">Declared prerequisites · Green marks the step satisfying the question</text>
<path d="M 170.0 182 C 170.0 214.0, 320.0 214.0, 320.0 244" fill="none" stroke="#61766d" stroke-width="2" marker-end="url(#arrow)"/>
<path d="M 470.0 182 C 470.0 214.0, 320.0 214.0, 320.0 244" fill="none" stroke="#61766d" stroke-width="2" marker-end="url(#arrow)"/>
<path d="M 620.0 322 C 620.0 354.0, 470.0 354.0, 470.0 384" fill="none" stroke="#61766d" stroke-width="2" marker-end="url(#arrow)"/>
<path d="M 320.0 322 C 320.0 354.0, 470.0 354.0, 470.0 384" fill="none" stroke="#61766d" stroke-width="2" marker-end="url(#arrow)"/>
<path d="M 770.0 182 V 202 H 928 V 354 H 470.0 V 384" fill="none" stroke="#61766d" stroke-width="2" marker-end="url(#arrow)"/>
<path d="M 170.0 182 C 170.0 214.0, 620.0 214.0, 620.0 244" fill="none" stroke="#61766d" stroke-width="2" marker-end="url(#arrow)"/>
<rect x="40.0" y="106" width="260" height="76" rx="10" fill="white" stroke="#287454" stroke-width="1"/>
<text x="170.0" y="149.0" text-anchor="middle" font-size="15">State permission</text>
<rect x="340.0" y="106" width="260" height="76" rx="10" fill="white" stroke="#287454" stroke-width="1"/>
<text x="470.0" y="149.0" text-anchor="middle" font-size="15">Boston technical readiness</text>
<rect x="640.0" y="106" width="260" height="76" rx="10" fill="white" stroke="#287454" stroke-width="1"/>
<text x="770.0" y="139.0" text-anchor="middle" font-size="15">Fleet, depot, and support</text>
<text x="770.0" y="159.0" text-anchor="middle" font-size="15">readiness</text>
<rect x="190.0" y="246" width="260" height="76" rx="10" fill="white" stroke="#287454" stroke-width="1"/>
<text x="320.0" y="289.0" text-anchor="middle" font-size="15">Local driverless validation</text>
<rect x="340.0" y="386" width="260" height="76" rx="10" fill="#e8f4ee" stroke="#287454" stroke-width="3"/>
<text x="470.0" y="419.0" text-anchor="middle" font-size="15">Paid rides open to the general</text>
<text x="470.0" y="439.0" text-anchor="middle" font-size="15">public</text>
<rect x="490.0" y="246" width="260" height="76" rx="10" fill="white" stroke="#287454" stroke-width="1"/>
<text x="620.0" y="289.0" text-anchor="middle" font-size="15">Local commercial arrangements</text>
<text x="30" y="552" font-size="13">Structure only. Dates, durations, and probabilities require scenario inputs.</text>
</g></svg>
